<?xml version="1.0" encoding="UTF-8"?>
<svg id="Calque_2" data-name="Calque 2" xmlns="http://www.w3.org/2000/svg" viewBox="0 0 382.16 219.2">
  <defs>
    <style>
      .cls-1 {
        fill: #fff;
      }
    </style>
  </defs>
  <g id="Calque_1-2" data-name="Calque 1">
    <g>
      <g>
        <path class="cls-1" d="M110.74,52.75c-1.1,1.09-2.33,2.71-3.67,4.89-1.35,2.17-2.02,4.95-2.02,8.32,0,4.46,1.41,8.08,4.22,10.86,2.82,2.78,6.3,4.16,10.47,4.16,3.92,0,7.53-1.05,10.83-3.17,3.31-2.11,6.15-4.79,8.54-8.05,2.39-3.26,4.22-6.81,5.51-10.67,1.29-3.86,1.93-7.48,1.93-10.86,0-4.46-1.26-7.63-3.76-9.5-2.51-1.87-5.91-2.8-10.19-2.8-6.49,0-13.13,1.36-19.93,4.07s-13.35,6.42-19.65,11.13c-6.31,4.7-12.24,10.22-17.81,16.55-5.57,6.33-10.41,13.18-14.51,20.54-4.1,7.36-7.35,14.99-9.73,22.89-2.39,7.9-3.58,15.77-3.58,23.61,0,3.86.52,7.54,1.56,11.04,1.04,3.5,2.53,6.58,4.48,9.23,1.95,2.65,4.24,4.77,6.87,6.33,2.62,1.57,5.52,2.35,8.7,2.35,4.76,0,9.37-1.11,13.82-3.35,4.45-2.23,8.45-5.16,11.99-8.77,3.54-3.62,6.38-7.78,8.51-12.48,2.13-4.7,3.21-9.59,3.21-14.65,0-2.65-.28-5.22-.83-7.69-.55-2.47-1.41-4.64-2.57-6.51-1.17-1.87-2.63-3.38-4.41-4.52-1.78-1.14-3.95-1.72-6.52-1.72-4.9,0-8.88,1.6-11.94,4.79-3.06,3.2-5.42,6.91-7.07,11.13-1.65,4.22-2.79,8.32-3.4,12.3-.61,3.98-.92,6.82-.92,8.5h-2.2c0-4.7.64-9.59,1.93-14.66,1.29-5.07,3.31-9.74,6.06-14.02,2.75-4.28,6.3-7.78,10.65-10.49,4.34-2.71,9.52-4.07,15.52-4.07,3.31,0,6.36.54,9.18,1.63,2.81,1.09,5.26,2.62,7.35,4.61,2.08,1.99,3.73,4.34,4.96,7.06,1.22,2.71,1.84,5.7,1.84,8.96,0,5.79-1.68,11.55-5.04,17.28-3.36,5.73-7.82,10.83-13.38,15.29-5.56,4.46-11.95,8.08-19.16,10.86s-14.67,4.16-22.36,4.16c-14.67,0-25.42-3.53-32.26-10.58-6.84-7.06-10.26-17.04-10.26-29.94,0-7.48,1.71-14.99,5.14-22.53,3.43-7.54,7.99-14.75,13.68-21.62,5.69-6.88,12.24-13.3,19.65-19.27,7.41-5.97,15.15-11.16,23.23-15.56,8.08-4.4,16.16-7.84,24.24-10.31,8.08-2.47,15.61-3.71,22.59-3.71,3.67,0,7.35.27,11.02.81s6.92,1.57,9.73,3.08c2.81,1.51,5.11,3.62,6.89,6.33,1.77,2.71,2.66,6.24,2.66,10.58,0,3.74-.95,7.39-2.85,10.95-1.9,3.56-4.5,6.69-7.8,9.41s-7.13,4.88-11.48,6.51c-4.35,1.63-8.97,2.44-13.86,2.44-2.82,0-5.54-.33-8.17-1-2.63-.66-4.96-1.72-6.98-3.17-2.02-1.45-3.61-3.28-4.77-5.52-1.17-2.23-1.74-4.91-1.74-8.05,0-2.41.52-4.88,1.56-7.42,1.04-2.53,2.66-4.88,4.87-7.06l1.47,1.08Z"/>
        <path class="cls-1" d="M220,36.65c-12.24,20.02-22.71,36.97-31.4,50.84-8.69,13.87-15.83,25.48-21.39,34.83-5.57,9.35-9.67,16.77-12.3,22.25-2.63,5.49-3.95,9.86-3.95,13.12,0,1.33.4,2.35,1.19,3.08.79.72,1.68,1.09,2.66,1.09,2.82,0,6.36-1.54,10.65-4.61,4.28-3.08,8.72-6.9,13.31-11.49,4.59-4.58,9.03-9.5,13.31-14.75,4.28-5.25,7.83-10.04,10.65-14.38l1.47.72c-.86,1.21-2.27,3.26-4.22,6.15-1.96,2.89-4.41,6.18-7.35,9.86-2.94,3.68-6.22,7.45-9.83,11.31-3.61,3.86-7.41,7.42-11.39,10.67-3.98,3.26-8.08,5.94-12.3,8.05-4.22,2.11-8.42,3.17-12.58,3.17-5.14,0-9-1.27-11.57-3.8-2.57-2.53-3.86-5.73-3.86-9.59,0-2.65.43-5.46,1.29-8.41.86-2.95,2.23-6.45,4.13-10.49,1.9-4.04,4.41-8.8,7.53-14.29,3.12-5.49,6.98-12.03,11.57-19.63,4.59-7.6,9.98-16.46,16.16-26.6,6.18-10.13,13.25-21.89,21.21-35.28l27-1.81Z"/>
        <path class="cls-1" d="M232.31,97.8l-6.43,9.77c-5.88,8.68-10.59,15.77-14.14,21.26-3.55,5.49-6.31,9.95-8.26,13.39-1.96,3.44-3.25,6.09-3.86,7.96-.61,1.87-.92,3.53-.92,4.98,0,1.57.46,2.84,1.38,3.8.92.97,2.11,1.45,3.58,1.45,2.45,0,5.6-1.36,9.46-4.07s8.08-6.66,12.67-11.85c4.59-5.18,9.46-11.52,14.6-19,5.14-7.48,10.22-15.98,15.24-25.51l26.63-.72c-1.1,1.81-2.66,4.22-4.68,7.24-2.02,3.02-4.29,6.3-6.79,9.86-2.51,3.56-5.08,7.33-7.71,11.31-2.63,3.98-5.02,7.81-7.16,11.49-2.14,3.68-3.89,7.12-5.23,10.31-1.35,3.2-2.02,5.82-2.02,7.87,0,1.69.37,2.87,1.1,3.53.74.66,1.71,1,2.94,1,2.08,0,4.5-.84,7.25-2.53,2.75-1.69,5.69-3.89,8.82-6.6,3.12-2.71,6.3-5.76,9.55-9.14,3.24-3.38,6.3-6.75,9.18-10.13,2.88-3.38,5.54-6.57,7.99-9.59,2.45-3.01,4.41-5.49,5.88-7.42l1.65,1.45c-2.08,2.41-4.47,5.28-7.16,8.59-2.69,3.32-5.6,6.79-8.72,10.4s-6.43,7.21-9.92,10.76c-3.49,3.56-7.07,6.73-10.74,9.5-3.67,2.78-7.38,5.04-11.11,6.79-3.74,1.75-7.44,2.62-11.11,2.62-2.69,0-5.02-.42-6.98-1.27-1.96-.84-3.55-1.99-4.77-3.44-1.23-1.45-2.14-3.1-2.75-4.98-.61-1.87-.92-3.77-.92-5.7,0-1.45.18-2.89.55-4.34s.73-2.65,1.1-3.62l-.37-.36c-2.69,3.02-5.45,5.94-8.26,8.77-2.82,2.84-5.76,5.37-8.82,7.6-3.06,2.23-6.18,4.01-9.37,5.34-3.19,1.33-6.43,1.99-9.73,1.99-5.14,0-8.94-1.48-11.39-4.43-2.45-2.95-3.67-6.72-3.67-11.31,0-2.41.55-5.16,1.65-8.23s2.51-6.3,4.22-9.68c1.71-3.38,3.64-6.81,5.79-10.31,2.14-3.5,4.19-6.79,6.15-9.86,1.96-3.08,3.76-5.85,5.42-8.32,1.65-2.47,2.91-4.43,3.76-5.88l26.45-.72Z"/>
        <path class="cls-1" d="M382.16,117.88c-2.82,3.98-5.97,7.99-9.46,12.03-3.49,4.04-7.44,8.17-11.84,12.39-8.45,7.96-16.65,13.99-24.61,18.09-7.96,4.1-16.83,6.15-26.63,6.15-8.45,0-14.88-1.93-19.28-5.79-4.41-3.86-6.61-9.47-6.61-16.83,0-6.39,1.84-12.42,5.51-18.09,3.67-5.67,8.29-10.61,13.87-14.84,5.57-4.22,11.63-7.6,18.18-10.13,6.55-2.53,12.76-3.8,18.64-3.8s10.71.94,14.51,2.8c3.79,1.87,5.69,4.92,5.69,9.14s-2.08,7.9-6.24,11.04c-4.16,3.14-9.09,5.82-14.78,8.05-5.69,2.23-11.42,4.04-17.17,5.43-5.76,1.39-10.28,2.44-13.59,3.17-.25,1.21-.43,2.41-.55,3.62-.12,1.21-.18,2.41-.18,3.62,0,2.17.24,4.31.73,6.42.49,2.11,1.31,3.95,2.48,5.52,1.16,1.57,2.69,2.84,4.59,3.8,1.9.97,4.25,1.45,7.07,1.45,5.75,0,11.94-2.08,18.55-6.24s13.28-9.38,20.02-15.65c4.28-4.1,8.05-8.08,11.29-11.94,3.24-3.86,5.97-7.36,8.17-10.49l1.65,1.09ZM341.76,104.32c0-3.38-1.72-5.07-5.14-5.07-2.69,0-5.6,1.36-8.72,4.07s-6,5.97-8.63,9.77c-2.63,3.8-4.93,7.69-6.89,11.67-1.96,3.98-3.18,7.3-3.67,9.95,5.14-1.09,9.76-2.74,13.87-4.98,4.1-2.23,7.59-4.73,10.47-7.51,2.88-2.77,5.05-5.73,6.52-8.87,1.47-3.13,2.2-6.15,2.2-9.05Z"/>
      </g>
      <g>
        <path class="cls-1" d="M24.18,1.65v3.86h-9.96v27.26h-4.26V5.51H0V1.65h24.18Z"/>
        <path class="cls-1" d="M45.05,18.33v14.45h-3.89v-13.8c0-3.85-1.63-5.99-4.93-5.99-4.07,0-5.87,2.69-5.87,7.41v12.38h-3.91V0s3.91,0,3.91,4.12v10.32c1.16-1.99,2.74-4.86,7.07-4.83,3.63.02,7.63,1.99,7.63,8.72Z"/>
        <path class="cls-1" d="M67.88,25.95c-.96,3.9-3.6,7.46-9.36,7.46-6.23,0-10.09-4.49-10.09-11.74,0-3.77,1.33-7.23,3.83-9.5h0c1.91-1.7,4.36-2.65,6.92-2.68h0c4.16-.21,8.2,1.71,8.27,6.42.03,4.37-3.39,6.29-7.46,6.79-1.38.4-6.63.19-6.76,3.47.96,2.47,2.78,3.97,5.36,3.97,2.83,0,4.48-1.51,5.4-4.21h3.89ZM58.84,12.56c-4,0-6.38,3.84-6.38,8.98,0,.12,0,.24,0,.37,2.04-2.04,6.84-1.75,8.97-2.84,2.14-.95,2.55-4.24.59-5.58-.95-.6-2.06-.92-3.19-.92Z"/>
      </g>
      <g>
        <path class="cls-1" d="M287.55,205.65h-3.66l-2.5-7.38h-10.57l-2.67,7.38h-3.42l9.27-24.63h4.6l8.94,24.63ZM280.33,195.56l-3.68-10.88h-.88l-3.97,10.88h8.54Z"/>
        <path class="cls-1" d="M303.13,190.22h-1.82l.3.34c.81.94,1.26,2.14,1.28,3.38,0,3.79-2.78,6.34-6.92,6.34-.26,0-.5,0-.74-.03-.96-.02-1.91.12-2.82.42-1.09.41-1.12.98-1.08,1.2.1.58.9.96,2.03.96.08,0,.19.01.31.01.55,0,1.45-.09,2.31-.18.86-.09,1.75-.18,2.29-.18.11,0,.2,0,.28.01,1.97.1,3.49.65,4.53,1.64,1.12,1.11,1.64,2.7,1.39,4.26-.19,1.67-1.17,3.14-2.64,3.95-1.63.97-3.51,1.46-5.41,1.4-3.08,0-6.25-1.02-8.33-2.67l1.88-2.49c2.01,1.47,3.93,2.26,5.7,2.35.2,0,.41.01.62.01,3.05,0,4.81-1,5.08-2.88.09-1.81-1.14-2.78-3.67-2.91-.05,0-.11,0-.17,0-.45,0-1.21.09-2.01.18-.86.1-1.74.21-2.29.21-.09,0-.19,0-.28-.01-2.82-.15-4.12-1.23-4.02-3.31.13-1.58,1.88-2.42,2.72-2.65l.48-.13-.19-.1c-3.09-1.77-3.03-5.5-3.03-5.54,0-4.39,3.56-6.69,7.08-6.69.91-.02,1.82.14,2.68.46h.04s7.28.01,7.28.01c-.11,1.48-1.35,2.63-2.84,2.63ZM299.97,193.8c0-2.52-1.69-4.34-4-4.34s-4,1.83-4,4.34,1.68,4.39,4,4.39,4-1.85,4-4.39Z"/>
        <path class="cls-1" d="M321.67,200.25c-.76,3.09-2.85,5.91-7.41,5.91-4.93,0-7.99-3.55-7.99-9.29,0-2.98,1.05-5.72,3.03-7.51h0c1.51-1.34,3.45-2.09,5.47-2.12h0c3.29-.17,6.49,1.35,6.55,5.08.02,3.46-2.68,4.98-5.91,5.38-1.09.32-5.25.15-5.35,2.75.76,1.96,2.2,3.14,4.24,3.14,2.24,0,3.55-1.19,4.28-3.33h3.08ZM314.52,189.65c-3.17,0-5.05,3.04-5.05,7.1,0,.1,0,.19,0,.29,1.62-1.61,5.41-1.39,7.1-2.25,1.7-.75,2.02-3.36.46-4.42-.75-.48-1.63-.73-2.52-.73Z"/>
        <path class="cls-1" d="M339.2,194.2v11.44h-3.08v-10.92c0-3.05-1.29-4.74-3.9-4.74-3.22,0-4.65,2.13-4.65,5.86v9.8h-3.09v-18.09s3.09,0,3.09,3.26v.31c.92-1.57,2.17-3.84,5.59-3.83,2.87.02,6.04,1.57,6.04,6.91Z"/>
        <path class="cls-1" d="M357.28,200.17c-.76,3.08-2.85,5.91-7.41,5.91-4.93,0-7.99-3.55-7.99-9.29,0-5.07,2.87-9.48,8.21-9.48,3.3,0,5.23,1.51,6.24,3.2l-2.48,1.75c-.6-1.34-1.75-2.36-3.82-2.36-3.17,0-4.96,2.72-4.96,6.79s1.74,6.82,4.85,6.82c2.24,0,3.55-1.19,4.28-3.33h3.08Z"/>
        <path class="cls-1" d="M365.61,214.03l1.88,2.49c-2.09,1.65-5.26,2.67-8.33,2.67-1.9.06-3.78-.42-5.41-1.4-1.46-.82-2.44-2.29-2.64-3.95-.25-1.56.27-3.15,1.39-4.26,1.04-.98,2.56-1.53,4.53-1.64.08,0,.17-.01.28-.01.54,0,1.42.09,2.29.17.86.09,1.76.18,2.31.18.12,0,.22,0,.31-.01,1,.12,1.48-.34,2.24-2.2l-6.5-18.37h3.5l4.38,14.62,4.58-14.62h3.3l-6.35,17.96c-.87,2.15-1.54,5.26-4.74,5.3-.09.01-.19.02-.29.01-.54,0-1.43-.11-2.29-.21-.8-.09-1.56-.18-2.01-.18-.07,0-.12,0-.17,0-2.53.13-3.76,1.1-3.67,2.91.27,1.89,2.03,2.88,5.08,2.88.21,0,.41,0,.62-.01,1.77-.09,3.69-.88,5.7-2.35Z"/>
        <path class="cls-1" d="M377.53,203.93c0,1.06-.86,1.92-1.92,1.92s-1.92-.86-1.92-1.92.86-1.92,1.92-1.92,1.92.86,1.92,1.92Z"/>
      </g>
    </g>
  </g>
</svg>