<?xml version="1.0" encoding="UTF-8"?>
<svg id="Calque_2" data-name="Calque 2" xmlns="http://www.w3.org/2000/svg" viewBox="0 0 392.86 391.66">
  <defs>
    <style>
      .cls-1 {
        fill: #fff;
      }
    </style>
  </defs>
  <g id="Calque_7" data-name="Calque 7">
    <g>
      <path d="M99.76.26l192.56-.26c53.3,4.24,96.34,47.37,100.55,100.63v191.21c-4.81,52.83-46.99,95.07-99.82,99.82H101.83c-53.28-4.33-96.34-47.22-100.63-100.55,2.95-62.23-3.82-127.94,0-189.76C4.44,49.04,47.66,4.9,99.76.26ZM327.47,43.3c-29.08.37-27.88,43.9,0,44,28.89.1,29.35-44.37,0-44ZM194.6,86.69c-87.34,1.86-137.23,101.74-86.14,172.89,45.34,63.14,140.62,59.57,181.46-6.42,45.51-73.54-9.34-168.29-95.33-166.46Z"/>
      <path class="cls-1" d="M189.23,131.04c-41.2,4.33-67.5,47.97-53.58,86.81,18.42,51.38,90.12,58.66,117.37,11.4,27.26-47.28-9.73-103.9-63.79-98.21Z"/>
      <path d="M189.23,131.04c54.06-5.68,91.05,50.93,63.79,98.21-27.25,47.26-98.95,39.98-117.37-11.4-13.92-38.84,12.38-82.48,53.58-86.81Z"/>
    </g>
  </g>
</svg>