<?xml version="1.0" encoding="UTF-8"?>
<svg id="Calque_2" data-name="Calque 2" xmlns="http://www.w3.org/2000/svg" viewBox="0 0 394.2 394.2">
  <g id="Calque_7" data-name="Calque 7">
    <path d="M91.19,1.03c69.19-3.01,140.05,1.74,209.41-.3,61.12,2.36,88.61,25.88,91.91,87.53,4.03,75.35-.53,152.01.03,227.45-4.89,56.75-40.04,75.84-92.82,77.73-68.18,2.45-137.83-1.95-206.17,0-63.88-2.44-90.45-28.99-92.83-92.83,1.87-67.77-2.35-136.75,0-204.38C2.94,32.69,26.05,3.86,91.19,1.03ZM297.46,174.88v-50.19c-2.14-2.28-5.88-1.07-9.08-1.58-15.81-2.5-30.35-12.51-39.26-25.59-4.92-7.23-6.18-14.42-9.85-22.13h-29.31l-1.33,1.33v171.44c0,4.71-7.72,16.24-11.54,19.55-26.58,23.11-68.46-4.21-55.52-38.64,6.61-17.57,25.16-25.23,43.07-21.33v-42.64h-22.65c-23.82,0-51.49,26.64-59.75,47.73-29.69,75.82,61.65,139.39,122.39,87.74,11.01-9.37,26.64-33.31,26.64-47.98v-94.6c8.45,4.11,16.3,9.38,25.28,12.47,2.8.96,19.81,5.5,20.91,4.41Z"/>
  </g>
</svg>